#N canvas 550 579 554 476 10;
#X declare -path bin64 -path abs;
#X declare -path ../..;
#X floatatom -16516 370 5 0 0 0 - - -, f 5;
#X obj -16516 121 list trim;
#X obj -16401 208 list;
#X obj -16482 282 tgl 15 0 empty empty empty 17 7 0 10 -262144 -1 -1
1 1;
#X obj -16516 142 t b a;
#X obj -16564 400 declare -path bin64 -path abs;
#X obj -16515 51 bng 15 250 50 0 empty empty empty 17 7 0 10 -262144
-1 -1;
#X msg -16515 101 /get_id /video_server;
#X msg -16554 180 connect 127.0.0.1 10000;
#X obj -16462 264 sel 1;
#X text -16481 370 here is th received id;
#X obj -16380 168 osc/packOSC;
#X obj -16380 189 mrpeach/slipenc;
#X obj -16516 344 osc/routeOSC /video_server;
#X obj -16264 326 declare -path ../..;
#X obj -16516 302 mrpeach/slipdec;
#X obj -16516 323 osc/unpackOSC;
#X text -16493 51 2 click to connect and ask an id;
#X text -16474 19 1 start the buggy_server.pd;
#X text -16452 242 3.edit the box to recreate the object;
#X text -16281 50 4;
#X text -16482 66 4 bang again to reconnect - this should crash;
#X obj -16516 240 tcpclient;
#X connect 1 0 4 0;
#X connect 2 0 22 0;
#X connect 4 0 8 0;
#X connect 4 1 11 0;
#X connect 6 0 7 0;
#X connect 7 0 1 0;
#X connect 8 0 22 0;
#X connect 9 0 2 0;
#X connect 11 0 12 0;
#X connect 12 0 2 1;
#X connect 13 0 0 0;
#X connect 15 0 16 0;
#X connect 16 0 13 0;
#X connect 22 0 15 0;
#X connect 22 2 3 0;
#X connect 22 2 9 0;
