#N canvas 560 551 375 448 10;
#X declare -path bin64 -path abs;
#X declare -path ../..;
#X floatatom -16516 370 5 0 0 0 - - -, f 5;
#X obj -16516 240 tcpclient;
#X obj -16516 90 list trim;
#X obj -16361 194 list;
#X obj -16482 282 tgl 15 0 empty empty empty 17 7 0 10 -262144 -1 -1
1 1;
#X obj -16516 111 t b a;
#X obj -16564 400 declare -path bin64 -path abs;
#X obj -16515 51 bng 15 250 50 0 empty empty empty 17 7 0 10 -262144
-1 -1;
#X msg -16515 70 /get_id /video_server;
#X msg -16554 149 connect 127.0.0.1 10000;
#X obj -16462 264 sel 1;
#X text -16492 51 click to connect and ask an id;
#X text -16481 370 here is th received id;
#X obj -16340 154 osc/packOSC;
#X obj -16340 175 mrpeach/slipenc;
#X obj -16516 344 osc/routeOSC /video_server;
#X obj -16341 252 declare -path ../..;
#X obj -16516 302 mrpeach/slipdec;
#X obj -16516 323 osc/unpackOSC;
#X msg -16503 202 disconnect;
#X connect 1 0 17 0;
#X connect 1 2 4 0;
#X connect 1 2 10 0;
#X connect 2 0 5 0;
#X connect 3 0 1 0;
#X connect 5 0 9 0;
#X connect 5 1 13 0;
#X connect 7 0 8 0;
#X connect 8 0 2 0;
#X connect 9 0 1 0;
#X connect 10 0 3 0;
#X connect 13 0 14 0;
#X connect 14 0 3 1;
#X connect 15 0 0 0;
#X connect 17 0 18 0;
#X connect 18 0 15 0;
#X connect 19 0 1 0;
