#N canvas 968 500 679 418 10;
#X declare -path ../bin64;
#X declare -path ../..;
#X obj 94 348 declare -path ../bin64;
#X obj 90 258 route /get_id;
#X obj 90 318 s \$0-tcpserver_in;
#X obj 90 108 list prepend broadcast;
#X obj 90 128 list trim;
#X obj 90 26 r \$0-tcpserver_in;
#X obj 90 47 list trim;
#X floatatom 110 199 5 0 0 0 - - -, f 5;
#X msg 7 126 disconnect;
#X obj 90 148 tcpserver 8889;
#N canvas 689 323 687 412 rebinding 0;
#X msg 195 54 stop;
#X obj 171 -8 inlet;
#X obj 140 259 outlet;
#X obj 75 59 loadbang;
#X obj 349 71 tgl 15 0 empty empty empty 17 7 0 10 -262144 -1 -1 1
1;
#X obj 312 12 bng 15 250 50 0 empty empty empty 17 7 0 10 -262144 -1
-1;
#X obj 28 199 f;
#X obj 55 199 + 1;
#X msg 43 179 0;
#X obj 171 21 sel -1;
#X obj 312 70 sel 1;
#X obj 312 32 == 10000;
#X obj 28 362 print id_manager;
#X text 285 2 if binding failed \, try another port in 100 ms;
#X obj 171 76 del 1000;
#X msg 247 249 bind to port \$1 successfully;
#X msg 141 237 port 10000;
#X msg 28 321 binding failed on port 10000 try again in 1000 ms...
;
#X connect 0 0 14 0;
#X connect 1 0 9 0;
#X connect 1 0 11 0;
#X connect 3 0 16 0;
#X connect 5 0 11 0;
#X connect 6 0 7 0;
#X connect 6 0 17 0;
#X connect 7 0 6 1;
#X connect 8 0 6 1;
#X connect 9 0 6 0;
#X connect 9 0 14 0;
#X connect 9 1 15 0;
#X connect 10 0 8 0;
#X connect 10 0 0 0;
#X connect 11 0 4 0;
#X connect 11 0 10 0;
#X connect 14 0 16 0;
#X connect 15 0 12 0;
#X connect 16 0 2 0;
#X connect 17 0 12 0;
#X restore 171 189 pd rebinding;
#X obj 171 169 route port;
#X msg 90 298 /video_server 1000;
#X obj 90 278 t b;
#X text 295 135 simple OSC TCP server;
#X text 323 160 return /video_server 1000 on /getid message;
#X obj 323 60 declare -path ../..;
#X obj 90 68 osc/packOSC;
#X obj 90 89 mrpeach/slipenc;
#X obj 90 218 mrpeach/slipdec;
#X obj 90 239 osc/unpackOSC;
#X obj -5 287 print server;
#X msg 156 126 broadcast 1 2 3;
#X connect 1 0 13 0;
#X connect 3 0 4 0;
#X connect 4 0 9 0;
#X connect 5 0 6 0;
#X connect 6 0 17 0;
#X connect 8 0 9 0;
#X connect 9 0 19 0;
#X connect 9 1 7 0;
#X connect 9 4 11 0;
#X connect 10 0 9 0;
#X connect 11 0 10 0;
#X connect 12 0 2 0;
#X connect 13 0 12 0;
#X connect 17 0 18 0;
#X connect 18 0 3 0;
#X connect 19 0 20 0;
#X connect 20 0 1 0;
#X connect 20 0 21 0;
#X connect 22 0 9 0;
