#N canvas 428 490 742 548 10;
#X declare -path ../..;
#X msg 15 259 disconnect;
#X obj 22 149 t b b b;
#X obj 22 70 tgl 15 0 empty empty empty 17 7 0 10 -261234 -1 -1 0 1
;
#X msg 106 248 1 2 3 4 5 6 7 8 9 10 11 12 13 14 15 16 17 18 19 20 21
22 23 24 25 26 27 28 29 30 255;
#X obj 106 219 del 20;
#X text 78 68 This patch appears to crash Pd after a few cycles of
disconnect|send|reconnect.;
#X text 44 71 <-;
#X floatatom 491 398 5 0 0 0 - - -, f 5;
#X obj 477 117 declare -path ../..;
#X obj 22 332 tcpclient;
#X obj 444 440 t b;
#X obj -15 175 t b b;
#X msg 12 205 stop;
#X obj 22 110 metro 120;
#X obj 443 364 tcpserver 22222;
#X msg 112 177 connect localhost 22222;
#X msg 455 326 1;
#X obj 22 230 del 40;
#X connect 0 0 9 0;
#X connect 1 0 17 0;
#X connect 1 1 4 0;
#X connect 1 2 15 0;
#X connect 2 0 13 0;
#X connect 3 0 9 0;
#X connect 4 0 3 0;
#X connect 9 0 11 0;
#X connect 10 0 16 0;
#X connect 11 1 12 0;
#X connect 12 0 17 0;
#X connect 13 0 1 0;
#X connect 14 0 10 0;
#X connect 14 1 7 0;
#X connect 15 0 9 0;
#X connect 16 0 14 0;
#X connect 17 0 0 0;
