#N canvas 422 505 742 548 10;
#X declare -path ../..;
#X msg 15 259 disconnect;
#X obj 22 149 t b b b;
#X msg 106 248 1 2 3 4 5 6 7 8 9 10 11 12 13 14 15 16 17 18 19 20 21
22 23 24 25 26 27 28 29 30 255;
#X obj 106 219 del 20;
#X floatatom 491 398 5 0 0 0 - - -, f 5;
#X obj 477 117 declare -path ../..;
#X obj 22 332 tcpclient;
#X obj 444 440 t b;
#X obj 443 364 tcpserver 22222;
#X msg 112 177 connect localhost 22222;
#X msg 455 326 1;
#X obj -18 365 sel 1;
#X obj 56 371 sel 1 0;
#X obj 195 332 del 100;
#X obj 29 115 bng 15 250 50 0 empty empty empty 17 7 0 10 -262144 -1
-1;
#X obj 56 409 del 100;
#X obj 34 87 loadbang;
#X connect 0 0 6 0;
#X connect 1 1 3 0;
#X connect 1 2 9 0;
#X connect 2 0 6 0;
#X connect 3 0 2 0;
#X connect 6 0 11 0;
#X connect 6 2 12 0;
#X connect 7 0 10 0;
#X connect 8 0 7 0;
#X connect 8 1 4 0;
#X connect 9 0 6 0;
#X connect 10 0 8 0;
#X connect 11 0 0 0;
#X connect 12 0 15 0;
#X connect 12 1 13 0;
#X connect 13 0 9 0;
#X connect 14 0 1 0;
#X connect 15 0 2 0;
#X connect 16 0 14 0;
